<svg id="Capa_1" data-name="Capa 1" xmlns="http://www.w3.org/2000/svg" viewBox="0 0 516.87 200.46"><title>logo-pagina</title><circle cx="100.23" cy="100.23" r="100.23" style="fill:#1d71b8"/><path d="M2.38,126.92a2.89,2.89,0,0,1-1.22-2.54q0-3.1,3.48-3.2L7.47,121q4.8-.28,7.15-3T17,109.4V64.2a3.78,3.78,0,0,1,3.86-4,3.72,3.72,0,0,1,2.82,1.08,4,4,0,0,1,1,2.87v45.3q0,8.66-4,13t-12,4.85L6,127.58A5.56,5.56,0,0,1,2.38,126.92Z" style="fill:#fff"/><path d="M47.54,124.85a19.42,19.42,0,0,1-7.63-8.34,28,28,0,0,1-2.69-12.57,28,28,0,0,1,2.69-12.57A19.39,19.39,0,0,1,47.54,83,22,22,0,0,1,59,80.12,22.31,22.31,0,0,1,70.47,83a19.36,19.36,0,0,1,7.67,8.33,28,28,0,0,1,2.69,12.57,28,28,0,0,1-2.69,12.57,19.38,19.38,0,0,1-7.67,8.34A22.41,22.41,0,0,1,59,127.77,22.12,22.12,0,0,1,47.54,124.85ZM69.38,117q3.63-4.47,3.63-13,0-8.39-3.67-13T59,86.43q-6.69,0-10.36,4.56t-3.67,13q0,8.48,3.62,13T59,121.46Q65.76,121.46,69.38,117Z" style="fill:#fff"/><path d="M99.42,126.73a25,25,0,0,1-6.92-2.92,9.17,9.17,0,0,1-2.4-2.12,4,4,0,0,1-.7-2.4,2.94,2.94,0,0,1,.7-2,2.32,2.32,0,0,1,1.84-.8,7,7,0,0,1,3.29,1.41,31.39,31.39,0,0,0,5.61,2.68,20.82,20.82,0,0,0,6.92,1c3.39,0,6-.59,7.91-1.79a5.78,5.78,0,0,0,2.83-5.18,5.13,5.13,0,0,0-1-3.34,8.52,8.52,0,0,0-3.58-2.26,50.74,50.74,0,0,0-7.44-2q-8.28-1.8-11.86-4.81A10.14,10.14,0,0,1,91,94a11.83,11.83,0,0,1,2.26-7.16,15.12,15.12,0,0,1,6.26-4.89,22,22,0,0,1,9.09-1.79,26,26,0,0,1,7.11,1,21.26,21.26,0,0,1,6.07,2.78q3.19,2.27,3.2,4.71a3,3,0,0,1-.75,2.07,2.3,2.3,0,0,1-1.79.85,7,7,0,0,1-3.39-1.6,30.07,30.07,0,0,0-5-2.64,16,16,0,0,0-5.84-.94,11.7,11.7,0,0,0-7.11,2,6.23,6.23,0,0,0-2.68,5.27,5.38,5.38,0,0,0,1,3.35,8.27,8.27,0,0,0,3.3,2.26,38.61,38.61,0,0,0,6.64,1.93,47.55,47.55,0,0,1,9.94,3.1,10.22,10.22,0,0,1,6.54,10.36,11.25,11.25,0,0,1-5,9.56q-5,3.63-13.18,3.63A32.15,32.15,0,0,1,99.42,126.73Z" style="fill:#fff"/><path d="M174.72,117.31a3.16,3.16,0,0,1,.75,2.17q0,2.35-3.3,4.33a28.46,28.46,0,0,1-7.15,3,28.9,28.9,0,0,1-7.35,1q-10.63,0-16.81-6.31T134.69,104a27.36,27.36,0,0,1,2.73-12.48,20.37,20.37,0,0,1,7.68-8.43,21.16,21.16,0,0,1,11.25-3q9,0,14.22,5.83t5.28,15.83a4.08,4.08,0,0,1-.76,2.73,3.14,3.14,0,0,1-2.45.84H142.32q.85,16.2,15.35,16.2a18,18,0,0,0,6.31-1,41,41,0,0,0,5.65-2.68,8.93,8.93,0,0,1,3.3-1.41A2.34,2.34,0,0,1,174.72,117.31ZM146.79,89.82q-3.61,3.77-4.28,10.64h26.65q-.19-7-3.48-10.69t-9.23-3.72A12.8,12.8,0,0,0,146.79,89.82Z" style="fill:#fff"/><path d="M242.78,64.51a8.34,8.34,0,0,1,2.31,6.17v50.38a8.49,8.49,0,0,1-2.31,6.22,8.25,8.25,0,0,1-6.17,2.35,7.95,7.95,0,0,1-8.47-8.57V102.23H201v18.83a8.53,8.53,0,0,1-2.3,6.22,9.33,9.33,0,0,1-12.34,0,8.43,8.43,0,0,1-2.31-6.26V70.68a8.48,8.48,0,1,1,16.95,0v17.8h27.13V70.68a8.73,8.73,0,0,1,14.64-6.17Z" style="fill:#1d1d1b"/><path d="M297.21,115.88a6.85,6.85,0,0,1,1.37,4.43,6.23,6.23,0,0,1-3.68,5.74,36.29,36.29,0,0,1-7.58,2.69,33.8,33.8,0,0,1-8.05,1.08,29.32,29.32,0,0,1-13.47-2.92,20.71,20.71,0,0,1-8.85-8.38,25.48,25.48,0,0,1-3.11-12.81,25.92,25.92,0,0,1,3-12.48,21.38,21.38,0,0,1,8.29-8.57,23.62,23.62,0,0,1,12-3.06,22.35,22.35,0,0,1,11.4,2.83,19.26,19.26,0,0,1,7.58,8,26.1,26.1,0,0,1,2.68,12.15,5.08,5.08,0,0,1-1,3.34,3.54,3.54,0,0,1-2.88,1.18H270c.44,3,1.41,5.18,2.92,6.5s3.74,2,6.69,2a16.85,16.85,0,0,0,4.33-.52,43.61,43.61,0,0,0,4.43-1.46c.94-.38,1.86-.71,2.77-1a8.6,8.6,0,0,1,2.5-.42A4.32,4.32,0,0,1,297.21,115.88ZM272.3,95a10.17,10.17,0,0,0-2.35,6.17h14.78q-.56-8.28-7.15-8.29A6.89,6.89,0,0,0,272.3,95Z" style="fill:#1d1d1b"/><path d="M340.86,83.25a6.66,6.66,0,0,1,1.88,5.13q0,3.78-1.74,5.47T334.74,96l-2.83.28q-4.71.57-6.73,3a9.83,9.83,0,0,0-2,6.55v16.1a7,7,0,0,1-2.4,5.79,10.23,10.23,0,0,1-12,0,7,7,0,0,1-2.4-5.79V89.33a6.8,6.8,0,0,1,2.4-5.56,8.8,8.8,0,0,1,5.79-2,8.15,8.15,0,0,1,5.61,1.88A6.72,6.72,0,0,1,322.31,89v1.79a12.56,12.56,0,0,1,4.94-6.41,14.24,14.24,0,0,1,7.21-2.44l1.31-.1A6.33,6.33,0,0,1,340.86,83.25Z" style="fill:#1d1d1b"/><path d="M380.32,83.25a6.66,6.66,0,0,1,1.88,5.13q0,3.78-1.74,5.47T374.2,96l-2.83.28q-4.71.57-6.73,3a9.83,9.83,0,0,0-2,6.55v16.1a7,7,0,0,1-2.4,5.79,10.23,10.23,0,0,1-12,0,7,7,0,0,1-2.4-5.79V89.33a6.8,6.8,0,0,1,2.4-5.56,8.8,8.8,0,0,1,5.79-2,8.18,8.18,0,0,1,5.61,1.88A6.71,6.71,0,0,1,361.76,89v1.79a12.63,12.63,0,0,1,4.95-6.41,14.24,14.24,0,0,1,7.2-2.44l1.32-.1A6.33,6.33,0,0,1,380.32,83.25Z" style="fill:#1d1d1b"/><path d="M425.57,115.88a6.85,6.85,0,0,1,1.36,4.43,6.22,6.22,0,0,1-3.67,5.74,36.5,36.5,0,0,1-7.58,2.69,33.8,33.8,0,0,1-8.05,1.08,29.32,29.32,0,0,1-13.47-2.92,20.71,20.71,0,0,1-8.85-8.38,25.48,25.48,0,0,1-3.11-12.81,25.92,25.92,0,0,1,3-12.48,21.35,21.35,0,0,1,8.28-8.57,23.66,23.66,0,0,1,12-3.06,22.37,22.37,0,0,1,11.4,2.83,19.26,19.26,0,0,1,7.58,8,26.1,26.1,0,0,1,2.68,12.15,5,5,0,0,1-1,3.34,3.53,3.53,0,0,1-2.87,1.18H398.4c.44,3,1.41,5.18,2.92,6.5s3.73,2,6.68,2a16.8,16.8,0,0,0,4.33-.52,42.81,42.81,0,0,0,4.43-1.46c.94-.38,1.87-.71,2.78-1a8.54,8.54,0,0,1,2.5-.42A4.32,4.32,0,0,1,425.57,115.88ZM400.66,95a10.18,10.18,0,0,0-2.36,6.17h14.79q-.57-8.28-7.16-8.29A6.87,6.87,0,0,0,400.66,95Z" style="fill:#1d1d1b"/><path d="M469.21,83.25a6.63,6.63,0,0,1,1.89,5.13q0,3.78-1.74,5.47c-1.17,1.13-3.25,1.85-6.27,2.16l-2.82.28c-3.14.38-5.39,1.37-6.73,3a9.78,9.78,0,0,0-2,6.55v16.1a7,7,0,0,1-2.4,5.79,10.23,10.23,0,0,1-12,0,7,7,0,0,1-2.4-5.79V89.33a6.8,6.8,0,0,1,2.4-5.56,8.8,8.8,0,0,1,5.79-2,8.14,8.14,0,0,1,5.6,1.88A6.68,6.68,0,0,1,450.66,89v1.79a12.58,12.58,0,0,1,4.95-6.41,14.24,14.24,0,0,1,7.2-2.44l1.32-.1A6.31,6.31,0,0,1,469.21,83.25Z" style="fill:#1d1d1b"/><path d="M511.73,86.74q5.13,5.13,5.14,15.58V122a7.4,7.4,0,0,1-2.12,5.61,8.19,8.19,0,0,1-5.89,2,7.85,7.85,0,0,1-5.41-1.88,7,7,0,0,1-2.31-5.09,10.48,10.48,0,0,1-4.43,5.28,14.13,14.13,0,0,1-7.44,1.88,19,19,0,0,1-8.66-1.93,15.12,15.12,0,0,1-6.08-5.37,14.08,14.08,0,0,1-2.21-7.77,11.68,11.68,0,0,1,2.59-8q2.59-3,8.24-4.28a69.93,69.93,0,0,1,15.26-1.32H501v-1.13q0-3.3-1.51-4.75c-1-1-2.7-1.46-5.08-1.46q-3.87,0-11.3,2.63a11.42,11.42,0,0,1-3.68.76,4.64,4.64,0,0,1-3.76-1.7,6.64,6.64,0,0,1-1.42-4.43,6.22,6.22,0,0,1,.85-3.39,7.52,7.52,0,0,1,2.73-2.35,32.85,32.85,0,0,1,8.29-2.73,48.16,48.16,0,0,1,9.79-1Q506.6,81.6,511.73,86.74Zm-13,29.47A8.82,8.82,0,0,0,501,110v-1.13h-1.51c-4,0-6.87.37-8.57,1.09a3.72,3.72,0,0,0-2.54,3.62,4.93,4.93,0,0,0,1.37,3.58,4.69,4.69,0,0,0,3.53,1.41A7.13,7.13,0,0,0,498.78,116.21Z" style="fill:#1d1d1b"/></svg>